HIERARCHY
ROOT Hips
{
	OFFSET 0.000000 71.427986 0.000000
	CHANNELS 6 Xposition Yposition Zposition Xrotation Yrotation Zrotation
	JOINT Pelvis
	{
		OFFSET 0.000000 0.000000 0.000000
		CHANNELS 3 Xrotation Yrotation Zrotation
		JOINT LeftUpLeg
		{
			OFFSET 6.797100 -2.508499 -1.318700
			CHANNELS 3 Xrotation Yrotation Zrotation
			JOINT LeftLeg
			{
				OFFSET 0.069008 -29.241863 0.690200
				CHANNELS 3 Xrotation Yrotation Zrotation
				JOINT LeftFoot
				{
					OFFSET -0.069008 -29.568123 -0.266800
					CHANNELS 3 Xrotation Yrotation Zrotation
					JOINT LeftToeBase
					{
						OFFSET 3.145500 -8.631000 16.059900
						CHANNELS 3 Xrotation Yrotation Zrotation
						End Site
						{
							OFFSET 0.000000 18.501587 0.000000
						}
					}
				}
			}
			JOINT Left_ShortSleeve
			{
				OFFSET 0.265923 -10.480953 1.153800
				CHANNELS 3 Xrotation Yrotation Zrotation
				End Site
				{
					OFFSET 1.725763 19.823879 0.000000
				}
			}
		}
		JOINT RightUpLeg
		{
			OFFSET -6.797100 -2.508499 -1.318700
			CHANNELS 3 Xrotation Yrotation Zrotation
			JOINT RightLeg
			{
				OFFSET -0.082453 -29.241932 0.688000
				CHANNELS 3 Xrotation Yrotation Zrotation
				JOINT RightFoot
				{
					OFFSET 0.082453 -29.568058 -0.264600
					CHANNELS 3 Xrotation Yrotation Zrotation
					JOINT RightToeBase
					{
						OFFSET -3.115300 -8.682800 16.113400
						CHANNELS 3 Xrotation Yrotation Zrotation
						End Site
						{
							OFFSET 0.000000 18.567114 0.000000
						}
					}
				}
			}
			JOINT Right_ShortSleeve
			{
				OFFSET -0.265923 -10.480953 1.153800
				CHANNELS 3 Xrotation Yrotation Zrotation
				End Site
				{
					OFFSET -1.725766 19.823910 0.000000
				}
			}
		}
	}
	JOINT Spine
	{
		OFFSET 0.000000 13.368103 0.470500
		CHANNELS 3 Xrotation Yrotation Zrotation
		JOINT Spine1
		{
			OFFSET 0.147000 13.837402 0.538800
			CHANNELS 3 Xrotation Yrotation Zrotation
			JOINT Spine2
			{
				OFFSET 0.168000 16.242897 -1.435500
				CHANNELS 3 Xrotation Yrotation Zrotation
				JOINT Neck
				{
					OFFSET 0.217200 18.631500 -1.679100
					CHANNELS 3 Xrotation Yrotation Zrotation
					JOINT Head
					{
						OFFSET 0.000000 6.599396 1.385900
						CHANNELS 3 Xrotation Yrotation Zrotation
						JOINT Hat
						{
							OFFSET -0.532200 27.220596 -10.096100
							CHANNELS 3 Xrotation Yrotation Zrotation
							End Site
							{
								OFFSET 0.000000 22.029861 0.000000
							}
						}
						JOINT HairD
						{
							OFFSET -10.777400 17.437393 -1.325900
							CHANNELS 3 Xrotation Yrotation Zrotation
							JOINT HairD1
							{
								OFFSET -3.290299 -11.051193 1.062200
								CHANNELS 3 Xrotation Yrotation Zrotation
								End Site
								{
									OFFSET 0.000000 11.579437 0.000000
								}
							}
						}
						JOINT HairB
						{
							OFFSET -10.777400 17.437393 1.467900
							CHANNELS 3 Xrotation Yrotation Zrotation
							JOINT HairB1
							{
								OFFSET -1.561200 -12.956299 3.590200
								CHANNELS 3 Xrotation Yrotation Zrotation
								End Site
								{
									OFFSET 0.000000 13.534866 0.000000
								}
							}
						}
						JOINT HairA
						{
							OFFSET 9.713100 17.437393 1.467900
							CHANNELS 3 Xrotation Yrotation Zrotation
							JOINT HairA1
							{
								OFFSET 1.561200 -12.956299 3.590200
								CHANNELS 3 Xrotation Yrotation Zrotation
								End Site
								{
									OFFSET 0.000000 13.534866 0.000000
								}
							}
						}
						JOINT HairC
						{
							OFFSET 9.713100 17.437393 -1.325900
							CHANNELS 3 Xrotation Yrotation Zrotation
							JOINT HairC1
							{
								OFFSET 3.290300 -11.051193 1.062200
								CHANNELS 3 Xrotation Yrotation Zrotation
								End Site
								{
									OFFSET 0.000000 11.579437 0.000000
								}
							}
						}
					}
				}
				JOINT LeftShoulder
				{
					OFFSET 5.101800 15.108002 -2.763700
					CHANNELS 3 Xrotation Yrotation Zrotation
					JOINT LeftArm
					{
						OFFSET 9.825497 2.506317 -1.597400
						CHANNELS 3 Xrotation Yrotation Zrotation
						JOINT LeftForeArm
						{
							OFFSET 21.966244 0.000000 0.000000
							CHANNELS 3 Xrotation Yrotation Zrotation
							JOINT LeftHand
							{
								OFFSET 33.879036 0.000000 0.000000
								CHANNELS 3 Xrotation Yrotation Zrotation
								JOINT LeftHandThumb1
								{
									OFFSET 6.715286 -2.359680 3.363841
									CHANNELS 3 Xrotation Yrotation Zrotation
									JOINT LeftHandThumb2
									{
										OFFSET 2.507072 -1.447464 1.447461
										CHANNELS 3 Xrotation Yrotation Zrotation
										JOINT LeftHandThumb3
										{
											OFFSET 2.898338 -1.673355 1.673357
											CHANNELS 3 Xrotation Yrotation Zrotation
											End Site
											{
												OFFSET -0.295959 3.727692 -0.131651
											}
										}
									}
								}
								JOINT LeftHandIndex1
								{
									OFFSET 14.190811 -0.254547 3.840278
									CHANNELS 3 Xrotation Yrotation Zrotation
									JOINT LeftHandIndex2
									{
										OFFSET 3.551727 0.000000 -0.000000
										CHANNELS 3 Xrotation Yrotation Zrotation
										JOINT LeftHandIndex3
										{
											OFFSET 2.894196 0.000000 0.000000
											CHANNELS 3 Xrotation Yrotation Zrotation
											End Site
											{
												OFFSET -1.000603 2.690872 0.366626
											}
										}
									}
								}
								JOINT LeftHandMiddle1
								{
									OFFSET 13.776489 0.000000 0.000000
									CHANNELS 3 Xrotation Yrotation Zrotation
									JOINT LeftHandMiddle2
									{
										OFFSET 3.438232 0.000000 0.000000
										CHANNELS 3 Xrotation Yrotation Zrotation
										JOINT LeftHandMiddle3
										{
											OFFSET 3.691551 0.000000 0.000000
											CHANNELS 3 Xrotation Yrotation Zrotation
											End Site
											{
												OFFSET -1.082298 3.499527 0.457670
											}
										}
									}
								}
								JOINT LeftHandRing1
								{
									OFFSET 13.966164 -0.268127 -3.067488
									CHANNELS 3 Xrotation Yrotation Zrotation
									JOINT LeftHandRing2
									{
										OFFSET 3.162567 0.000000 0.000000
										CHANNELS 3 Xrotation Yrotation Zrotation
										JOINT LeftHandRing3
										{
											OFFSET 3.324348 0.000000 0.000000
											CHANNELS 3 Xrotation Yrotation Zrotation
											End Site
											{
												OFFSET -0.861900 3.184998 0.405154
											}
										}
									}
								}
								JOINT LeftHandPinky1
								{
									OFFSET 13.131393 -0.168503 -5.746925
									CHANNELS 3 Xrotation Yrotation Zrotation
									JOINT LeftHandPinky2
									{
										OFFSET 2.849182 0.000000 0.000000
										CHANNELS 3 Xrotation Yrotation Zrotation
										JOINT LeftHandPinky3
										{
											OFFSET 2.805038 0.000000 0.000000
											CHANNELS 3 Xrotation Yrotation Zrotation
											End Site
											{
												OFFSET -0.882500 2.642609 0.325652
											}
										}
									}
								}
							}
							JOINT Left_Sleeve
							{
								OFFSET 6.592125 -0.646545 0.805568
								CHANNELS 3 Xrotation Yrotation Zrotation
								End Site
								{
									OFFSET -0.000179 20.275787 -0.000000
								}
							}
						}
					}
				}
				JOINT RightShoulder
				{
					OFFSET -5.731700 15.108002 -2.763700
					CHANNELS 3 Xrotation Yrotation Zrotation
					JOINT RightArm
					{
						OFFSET -9.825497 2.506317 -1.597400
						CHANNELS 3 Xrotation Yrotation Zrotation
						JOINT RightForeArm
						{
							OFFSET -21.966242 0.000000 0.000000
							CHANNELS 3 Xrotation Yrotation Zrotation
							JOINT RightHand
							{
								OFFSET -33.879032 0.000000 0.000000
								CHANNELS 3 Xrotation Yrotation Zrotation
								JOINT RightHandThumb1
								{
									OFFSET -6.715286 -2.359680 3.363841
									CHANNELS 3 Xrotation Yrotation Zrotation
									JOINT RightHandThumb2
									{
										OFFSET -2.507072 -1.447464 1.447461
										CHANNELS 3 Xrotation Yrotation Zrotation
										JOINT RightHandThumb3
										{
											OFFSET -2.898338 -1.673355 1.673357
											CHANNELS 3 Xrotation Yrotation Zrotation
											End Site
											{
												OFFSET 0.295959 3.727692 -0.131651
											}
										}
									}
								}
								JOINT RightHandIndex1
								{
									OFFSET -14.190811 -0.254547 3.840278
									CHANNELS 3 Xrotation Yrotation Zrotation
									JOINT RightHandIndex2
									{
										OFFSET -3.551727 0.000000 -0.000000
										CHANNELS 3 Xrotation Yrotation Zrotation
										JOINT RightHandIndex3
										{
											OFFSET -2.894196 0.000000 0.000000
											CHANNELS 3 Xrotation Yrotation Zrotation
											End Site
											{
												OFFSET 1.000603 2.690872 0.366626
											}
										}
									}
								}
								JOINT RightHandMiddle1
								{
									OFFSET -13.776489 0.000000 0.000000
									CHANNELS 3 Xrotation Yrotation Zrotation
									JOINT RightHandMiddle2
									{
										OFFSET -3.438232 0.000000 0.000000
										CHANNELS 3 Xrotation Yrotation Zrotation
										JOINT RightHandMiddle3
										{
											OFFSET -3.691551 0.000000 0.000000
											CHANNELS 3 Xrotation Yrotation Zrotation
											End Site
											{
												OFFSET 1.082298 3.499527 0.457670
											}
										}
									}
								}
								JOINT RightHandRing1
								{
									OFFSET -13.966164 -0.268127 -3.067488
									CHANNELS 3 Xrotation Yrotation Zrotation
									JOINT RightHandRing2
									{
										OFFSET -3.162567 0.000000 0.000000
										CHANNELS 3 Xrotation Yrotation Zrotation
										JOINT RightHandRing3
										{
											OFFSET -3.324348 0.000000 0.000000
											CHANNELS 3 Xrotation Yrotation Zrotation
											End Site
											{
												OFFSET 0.861900 3.184998 0.405154
											}
										}
									}
								}
								JOINT RightHandPinky1
								{
									OFFSET -13.131393 -0.168503 -5.746925
									CHANNELS 3 Xrotation Yrotation Zrotation
									JOINT RightHandPinky2
									{
										OFFSET -2.849182 0.000000 0.000000
										CHANNELS 3 Xrotation Yrotation Zrotation
										JOINT RightHandPinky3
										{
											OFFSET -2.805038 0.000000 0.000000
											CHANNELS 3 Xrotation Yrotation Zrotation
											End Site
											{
												OFFSET 0.882500 2.642609 0.325652
											}
										}
									}
								}
							}
							JOINT Right_Sleeve
							{
								OFFSET -6.592125 -0.646545 0.805568
								CHANNELS 3 Xrotation Yrotation Zrotation
								End Site
								{
									OFFSET 0.000179 20.275787 -0.000000
								}
							}
						}
					}
				}
				JOINT Bind_Right_JacketString
				{
					OFFSET -3.534800 11.969597 7.200700
					CHANNELS 3 Xrotation Yrotation Zrotation
					JOINT Bind_Right_JacketString1
					{
						OFFSET -0.319900 -6.102600 2.794100
						CHANNELS 3 Xrotation Yrotation Zrotation
						End Site
						{
							OFFSET 0.000000 6.719452 0.000000
						}
					}
				}
				JOINT Bind_Left_JacketString
				{
					OFFSET 2.904800 11.969597 7.200700
					CHANNELS 3 Xrotation Yrotation Zrotation
					JOINT Bind_Left_JacketString1
					{
						OFFSET 0.364800 -5.904503 3.186800
						CHANNELS 3 Xrotation Yrotation Zrotation
						End Site
						{
							OFFSET 0.000000 6.719513 0.000000
						}
					}
				}
				JOINT HairE
				{
					OFFSET 5.915200 17.612701 -11.592200
					CHANNELS 3 Xrotation Yrotation Zrotation
					JOINT HairE1
					{
						OFFSET 0.289200 -7.171898 -1.284500
						CHANNELS 3 Xrotation Yrotation Zrotation
						End Site
						{
							OFFSET 0.000000 7.291756 0.000000
						}
					}
				}
				JOINT HairF
				{
					OFFSET -0.864800 17.612701 -11.592200
					CHANNELS 3 Xrotation Yrotation Zrotation
					JOINT HairF1
					{
						OFFSET 0.000000 -14.087097 -2.127501
						CHANNELS 3 Xrotation Yrotation Zrotation
						End Site
						{
							OFFSET 0.000000 14.246841 0.000000
						}
					}
				}
				JOINT HairG
				{
					OFFSET -8.087700 17.612701 -11.592200
					CHANNELS 3 Xrotation Yrotation Zrotation
					JOINT HairG1
					{
						OFFSET -0.293600 -6.081398 -0.910100
						CHANNELS 3 Xrotation Yrotation Zrotation
						End Site
						{
							OFFSET 0.000000 6.156120 0.000000
						}
					}
				}
			}
		}
	}
	JOINT Pouch
	{
		OFFSET 0.000000 4.394501 10.847300
		CHANNELS 3 Xrotation Yrotation Zrotation
		End Site
		{
			OFFSET 0.000000 21.880577 0.000000
		}
	}
	JOINT Bag
	{
		OFFSET -13.229000 4.813004 -0.593300
		CHANNELS 3 Xrotation Yrotation Zrotation
		End Site
		{
			OFFSET 0.000000 21.880577 0.000000
		}
	}
	JOINT OccupyGuyFacialAnim_Joint
	{
		OFFSET 1.000000 -70.206398 -1.655000
		CHANNELS 3 Xrotation Yrotation Zrotation
		End Site
		{
			OFFSET 0.000000 21.880577 0.000000
		}
	}
}
MOTION
Frames: 5
Frame Time: 0.016667
0.164625 66.897148 1.131979 26.280855 11.949538 2.405367 -0.000000 -0.000000 -0.000000 -45.873367 9.176677 13.459125 47.569481 10.444801 -5.830165 -1.738607 22.865148 -15.485962 -0.000000 0.000002 0.000001 -0.000002 0.000003 -0.000000 -60.763624 -12.771151 -11.208913 36.371253 4.053787 -4.470633 -3.056588 -9.889516 -0.709438 0.000000 0.000000 0.000000 0.000004 0.000000 -0.000000 11.248650 -1.671519 0.452407 9.276079 2.486271 -1.078453 9.399719 1.253082 -3.812947 -9.096164 7.493523 -0.883473 -27.171297 1.769077 -6.727667 -0.000000 -0.000001 -0.000000 -0.000000 -0.000001 -0.000000 -0.000000 -0.000001 -0.000000 -0.000000 -0.000001 -0.000001 -0.000002 -0.000001 -0.000000 -0.000000 -0.000001 -0.000001 -0.000002 -0.000001 -0.000000 -0.000000 -0.000001 -0.000000 -0.000000 -0.000001 -0.000000 0.803783 0.857151 -9.303934 -29.535883 -3.682377 -62.075095 0.000002 -41.672791 0.000003 20.410299 8.999562 -6.096329 -6.000705 -6.126818 4.616761 7.450113 23.644281 2.310965 0.000000 0.000002 0.000000 1.311407 -4.551191 -15.849350 1.142352 3.477096 -36.365133 0.000000 0.000000 -0.000004 0.477006 4.520337 -21.613191 1.655972 4.082384 -44.144486 -0.000000 0.000002 0.000003 2.993463 9.713608 -25.720706 1.694439 4.121562 -44.682234 0.000002 -0.000001 -0.000003 -10.154131 18.200864 -22.286607 1.656855 4.083310 -44.156869 -0.000001 -0.000001 0.000003 -0.000001 0.000000 0.000002 5.720873 24.427845 1.421180 -24.663793 -14.041417 65.136413 -0.000003 37.034269 0.000013 11.717751 14.064669 -10.776483 -5.141684 1.887949 -6.280724 7.832921 -27.003875 -3.053130 0.000003 0.000000 -0.000000 9.420640 2.591756 6.997326 0.448774 -1.996449 25.335316 -0.000000 0.000001 -0.000001 0.141875 -3.212535 11.503909 0.448783 -1.996454 25.335325 -0.000000 0.000001 -0.000001 1.475379 -6.489821 23.742031 0.450094 -1.999220 25.372814 0.000000 -0.000001 0.000002 -12.523761 -9.712307 30.059693 0.448787 -1.996464 25.335301 0.000005 -0.000001 -0.000001 0.000002 0.000000 0.000000 0.000005 -0.000000 0.000000 0.000003 -0.000001 -0.000000 0.000005 -0.000000 -0.000000 0.000005 -0.000000 -0.000000 0.000005 -0.000000 0.000000 0.000003 -0.000001 -0.000000 0.000005 -0.000000 -0.000000 0.000005 -0.000000 -0.000000 0.000005 -0.000000 0.000000 0.000003 -0.000001 -0.000000 -0.000000 -0.000000 -0.000000 -0.000000 -0.000000 -0.000000 -0.000000 -0.000000 -0.000000 
0.143588 67.570999 2.045702 26.204325 12.268992 2.637347 0.000000 -0.000001 -0.000000 -45.499930 9.628834 12.130273 42.906207 9.991996 -5.660452 1.347255 23.964210 -16.511591 0.000001 -0.000001 0.000001 -0.000000 0.000001 -0.000000 -58.409169 -12.921075 -11.165992 33.951337 4.269547 -4.475572 -2.896829 -10.287676 -0.479506 0.000000 0.000001 -0.000000 0.000001 -0.000001 0.000000 10.876287 -1.185237 0.493854 9.270633 2.730512 -1.057022 9.403898 1.489580 -3.792866 -9.298682 7.419097 -1.033893 -26.919032 0.659610 -7.172823 0.000003 0.000002 -0.000001 0.000003 0.000002 -0.000001 0.000003 0.000002 -0.000000 0.000003 0.000002 -0.000000 0.000003 0.000001 0.000001 0.000003 0.000002 -0.000000 0.000003 0.000001 0.000001 0.000003 0.000002 -0.000001 0.000003 0.000002 -0.000001 0.819702 0.837072 -9.277594 -28.935721 -1.468112 -61.169788 0.000004 -41.886654 0.000026 28.314156 8.850562 -10.911713 -6.000699 -6.126816 4.616745 7.450118 23.644281 2.310971 0.000002 0.000001 -0.000004 1.332688 -4.478268 -16.588793 1.170433 3.514842 -36.825662 0.000003 -0.000002 0.000001 0.494562 4.563977 -22.073440 1.678330 4.105243 -44.457664 0.000000 -0.000001 0.000001 3.034015 9.729405 -26.036568 1.710901 4.138094 -44.910758 -0.000000 0.000001 0.000000 -10.114095 18.209732 -22.521299 1.669237 4.096006 -44.330711 -0.000001 -0.000001 0.000001 0.000000 -0.000000 -0.000000 5.725877 24.411890 1.390784 -24.662561 -15.375738 64.479964 0.000001 37.223185 0.000002 10.068250 13.567032 -10.840915 -5.210756 2.102428 -6.162660 7.832919 -27.003879 -3.053127 0.000002 -0.000001 0.000003 9.420646 2.591760 6.997315 0.458714 -2.017264 25.618870 -0.000001 0.000000 0.000000 0.144108 -3.223370 11.639866 0.454446 -2.008361 25.497137 0.000002 -0.000000 -0.000001 1.483116 -6.495706 23.847373 0.454588 -2.008685 25.501526 0.000002 0.000003 0.000002 -12.459868 -9.795185 30.147157 0.452425 -2.004148 25.439803 -0.000001 -0.000001 -0.000001 0.000003 0.000000 -0.000000 0.000002 0.000000 0.000001 0.000000 0.000000 0.000001 0.000002 0.000000 0.000000 0.000002 0.000000 0.000000 0.000002 0.000000 0.000001 0.000000 0.000000 0.000001 0.000002 0.000000 0.000000 0.000002 0.000000 0.000000 0.000002 0.000000 0.000001 0.000000 0.000000 0.000001 0.000000 -0.000001 -0.000000 0.000000 -0.000001 -0.000000 0.000000 -0.000001 -0.000000 
0.263375 68.185913 3.286430 26.019705 12.803623 2.784570 0.000001 0.000001 -0.000000 -44.784119 9.940572 10.975767 38.469360 9.444144 -5.489499 5.102328 25.114708 -18.228745 0.000001 -0.000001 -0.000000 0.000002 0.000000 -0.000002 -55.973568 -13.204219 -11.387198 32.135053 4.172202 -4.480455 -3.346292 -10.440222 -0.109798 0.000000 0.000001 -0.000000 0.000000 0.000000 0.000000 10.466140 -0.546834 0.632059 9.248256 2.964293 -0.996378 9.387527 1.751384 -3.651127 -9.472125 7.196020 -1.232978 -26.658551 -0.579031 -7.669385 -0.000000 0.000001 -0.000000 -0.000000 0.000001 -0.000000 -0.000000 0.000001 0.000000 -0.000000 0.000001 -0.000000 -0.000000 -0.000001 -0.000000 -0.000000 0.000001 -0.000000 -0.000000 -0.000001 -0.000000 -0.000000 0.000001 -0.000000 -0.000000 0.000001 -0.000000 0.864111 0.779456 -9.200427 -27.914290 0.938282 -60.038497 -0.000001 -42.148869 -0.000009 33.782802 8.315951 -15.356973 -6.000705 -6.126818 4.616738 7.450114 23.644278 2.310965 0.000001 -0.000003 -0.000002 1.391892 -4.291521 -18.495573 1.247185 3.614884 -38.060075 0.000001 -0.000003 0.000003 0.543326 4.680233 -23.306984 1.740280 4.167275 -45.316567 -0.000001 -0.000001 0.000002 3.145660 9.771606 -26.902679 1.757052 4.183761 -45.546956 -0.000001 -0.000000 0.000003 -10.003790 18.233528 -23.175404 1.704333 4.131516 -44.819739 -0.000000 0.000001 0.000003 -0.000000 0.000001 -0.000002 5.738796 24.365539 1.303480 -24.740745 -16.700538 63.463263 -0.000005 37.406511 0.000002 8.192581 12.947392 -10.997447 -5.403149 2.694644 -5.834619 7.832918 -27.003875 -3.053126 -0.000004 -0.000001 0.000001 9.420641 2.591772 6.997320 0.486719 -2.074623 26.402890 0.000003 0.000002 0.000001 0.150458 -3.253697 12.020577 0.470609 -2.041888 25.954570 0.000001 0.000001 0.000001 1.505061 -6.512318 24.145035 0.467529 -2.035554 25.867905 0.000003 0.000003 0.000000 -12.276608 -10.030105 30.396944 0.462941 -2.026088 25.738847 0.000000 -0.000000 0.000000 0.000002 0.000000 -0.000000 0.000004 -0.000000 0.000000 0.000003 0.000001 -0.000000 0.000004 -0.000000 -0.000000 0.000004 -0.000000 -0.000000 0.000004 -0.000000 0.000000 0.000003 0.000001 -0.000000 0.000004 -0.000000 -0.000000 0.000004 -0.000000 -0.000000 0.000004 -0.000000 0.000000 0.000003 0.000001 -0.000000 0.000001 0.000001 -0.000000 0.000001 0.000001 -0.000000 0.000001 0.000001 -0.000000 
0.389932 68.743271 4.523684 25.738427 13.553029 2.857617 0.000001 0.000001 -0.000001 -44.319745 10.104891 9.948942 34.673933 8.585003 -5.371677 8.040537 27.087350 -19.685631 0.000000 0.000001 -0.000000 0.000000 -0.000000 -0.000001 -53.526929 -13.643457 -11.699035 30.460158 4.286946 -4.484897 -3.857354 -10.899376 0.246642 0.000000 0.000001 -0.000000 -0.000000 0.000000 0.000000 10.129360 0.207672 0.850733 9.210902 3.190170 -0.903509 9.351840 2.036271 -3.375821 -9.625004 6.855364 -1.477740 -26.488022 -1.955138 -8.210934 0.000002 -0.000000 0.000000 0.000002 -0.000000 0.000000 0.000002 -0.000000 0.000000 0.000002 -0.000000 -0.000000 0.000000 0.000002 0.000000 0.000002 -0.000000 -0.000000 0.000000 0.000002 0.000000 0.000002 -0.000000 0.000000 0.000002 -0.000000 0.000000 0.932217 0.688369 -9.075188 -26.479344 3.102025 -58.698414 0.000007 -42.442990 -0.000009 35.621462 7.717643 -18.708708 -6.000701 -6.126821 4.616727 7.450112 23.644283 2.310964 0.000001 0.000001 -0.000003 1.482846 -4.039552 -21.102402 1.362121 3.756746 -39.847692 -0.000000 -0.000000 -0.000002 0.618373 4.846616 -25.093458 1.834577 4.258220 -46.600079 0.000001 -0.000000 -0.000005 3.311839 9.828161 -28.197193 1.828400 4.252399 -46.516798 -0.000000 -0.000002 -0.000003 -9.839240 18.267276 -24.172207 1.759093 4.185765 -45.574827 -0.000000 -0.000002 0.000001 -0.000001 0.000001 -0.000004 5.756289 24.290980 1.165177 -24.886552 -18.127296 62.390179 0.000013 37.716680 -0.000028 6.128155 12.171679 -11.084172 -5.697789 3.587376 -5.334403 7.832918 -27.003875 -3.053126 -0.000000 0.000000 0.000003 9.420634 2.591770 6.997319 0.530468 -2.160468 27.587346 -0.000003 0.000003 -0.000001 0.160620 -3.300185 12.605205 0.496248 -2.093718 26.665388 0.000006 -0.000003 -0.000001 1.539355 -6.537900 24.607524 0.488123 -2.077489 26.442259 0.000005 -0.000003 -0.000003 -11.985069 -10.395323 30.791073 0.479783 -2.060614 26.210834 -0.000003 0.000001 0.000002 0.000003 0.000000 0.000000 -0.000000 -0.000001 -0.000000 -0.000001 0.000002 -0.000001 -0.000000 -0.000001 -0.000000 -0.000000 -0.000001 -0.000000 -0.000000 -0.000001 -0.000000 -0.000001 0.000002 -0.000000 -0.000000 -0.000001 -0.000000 -0.000000 -0.000001 -0.000000 -0.000000 -0.000001 -0.000000 -0.000001 0.000002 -0.000000 0.000001 0.000001 -0.000001 0.000001 0.000001 -0.000001 0.000001 0.000001 -0.000001 
0.517761 69.187157 5.758327 25.321504 14.351016 2.913232 -0.000001 -0.000001 -0.000001 -44.099164 10.150743 9.032052 31.935232 7.816177 -5.355468 9.226107 28.031564 -20.065433 0.000000 0.000002 -0.000000 -0.000001 0.000003 -0.000000 -51.260075 -14.230725 -12.072729 29.297444 4.633952 -4.485321 -4.591867 -11.528161 0.520951 0.000000 -0.000001 0.000000 0.000001 -0.000001 0.000001 9.977195 1.039438 1.132631 9.162365 3.405352 -0.814594 9.299429 2.332559 -3.026501 -9.786415 6.437162 -1.739176 -26.535418 -3.323930 -8.836772 0.000001 0.000002 -0.000000 0.000001 0.000002 -0.000000 0.000001 0.000002 -0.000000 0.000001 0.000002 -0.000000 -0.000000 0.000002 -0.000001 0.000001 0.000002 -0.000000 -0.000000 0.000002 -0.000001 0.000001 0.000002 -0.000000 0.000001 0.000002 -0.000000 1.019373 0.567893 -8.904577 -24.750287 5.026886 -57.223103 0.000005 -42.830381 0.000017 34.510207 7.719816 -21.204124 -6.000701 -6.126813 4.616754 7.450112 23.644283 2.310967 0.000001 0.000001 -0.000001 1.594856 -3.770041 -23.942229 1.504063 3.920198 -41.967756 -0.000000 -0.000000 0.000005 0.714045 5.040753 -27.212264 1.953937 4.367696 -48.187220 0.000001 -0.000002 -0.000001 3.517052 9.889844 -29.797984 1.920494 4.337638 -47.746332 -0.000002 -0.000003 -0.000002 -9.636985 18.306136 -25.435242 1.830632 4.254510 -46.546902 -0.000000 -0.000004 0.000000 0.000001 0.000001 -0.000005 5.775044 24.190532 0.981692 -25.353333 -19.271686 60.878132 0.000004 38.352755 -0.000003 3.564463 11.463260 -11.231995 -6.074155 4.703093 -4.699194 7.832922 -27.003875 -3.053129 0.000001 -0.000000 0.000003 9.420634 2.591765 6.997316 0.587840 -2.266768 29.072307 -0.000003 0.000003 0.000003 0.174323 -3.359487 13.353053 0.530469 -2.160477 27.587354 0.000007 -0.000004 0.000000 1.584125 -6.570681 25.207494 0.515785 -2.132140 27.194895 -0.000001 0.000000 0.000001 -11.595179 -10.868194 31.312398 0.502444 -2.105993 26.834200 -0.000003 -0.000001 -0.000007 0.000002 0.000000 0.000000 -0.000001 0.000001 0.000002 -0.000001 -0.000001 0.000001 -0.000001 0.000001 0.000001 -0.000001 0.000001 0.000001 -0.000001 0.000001 0.000002 -0.000001 -0.000001 0.000001 -0.000001 0.000001 0.000001 -0.000001 0.000001 0.000001 -0.000001 0.000001 0.000002 -0.000001 -0.000001 0.000001 -0.000001 -0.000001 -0.000001 -0.000001 -0.000001 -0.000001 -0.000001 -0.000001 -0.000001 
